<svg width="152" height="327" viewBox="0 0 152 327" fill="none" xmlns="http://www.w3.org/2000/svg">
  <g filter="url(#filter0_d_1_405)">
    <rect x="36" y="12" width="137" height="255" fill="#EEECEC" />
  </g>
  <rect x="15" y="3" width="137" height="273" fill="#FF8FE6" />
  <path d="M36 250H90" stroke="#1C2A39" stroke-width="2" />
  <path d="M84 244L91 250L84 256" stroke="#1C2A39" stroke-width="2" />
  <path
    d="M40.104 169V158.776H36.072V156.4H47.052V158.776H43.02V169H40.104ZM54.5652 169.216C53.5692 169.216 52.6452 169.054 51.7932 168.73C50.9532 168.406 50.2212 167.95 49.5972 167.362C48.9852 166.774 48.5052 166.084 48.1572 165.292C47.8212 164.5 47.6532 163.636 47.6532 162.7C47.6532 161.764 47.8212 160.9 48.1572 160.108C48.5052 159.316 48.9912 158.626 49.6152 158.038C50.2392 157.45 50.9712 156.994 51.8112 156.67C52.6512 156.346 53.5632 156.184 54.5472 156.184C55.5432 156.184 56.4552 156.346 57.2832 156.67C58.1232 156.994 58.8492 157.45 59.4612 158.038C60.0852 158.626 60.5712 159.316 60.9192 160.108C61.2672 160.888 61.4412 161.752 61.4412 162.7C61.4412 163.636 61.2672 164.506 60.9192 165.31C60.5712 166.102 60.0852 166.792 59.4612 167.38C58.8492 167.956 58.1232 168.406 57.2832 168.73C56.4552 169.054 55.5492 169.216 54.5652 169.216ZM54.5472 166.732C55.1112 166.732 55.6272 166.636 56.0952 166.444C56.5752 166.252 56.9952 165.976 57.3552 165.616C57.7152 165.256 57.9912 164.83 58.1832 164.338C58.3872 163.846 58.4892 163.3 58.4892 162.7C58.4892 162.1 58.3872 161.554 58.1832 161.062C57.9912 160.57 57.7152 160.144 57.3552 159.784C57.0072 159.424 56.5932 159.148 56.1132 158.956C55.6332 158.764 55.1112 158.668 54.5472 158.668C53.9832 158.668 53.4612 158.764 52.9812 158.956C52.5132 159.148 52.0992 159.424 51.7392 159.784C51.3792 160.144 51.0972 160.57 50.8932 161.062C50.7012 161.554 50.6052 162.1 50.6052 162.7C50.6052 163.288 50.7012 163.834 50.8932 164.338C51.0972 164.83 51.3732 165.256 51.7212 165.616C52.0812 165.976 52.5012 166.252 52.9812 166.444C53.4612 166.636 53.9832 166.732 54.5472 166.732ZM63.6327 169V156.4H69.0867C70.2147 156.4 71.1867 156.586 72.0027 156.958C72.8187 157.318 73.4487 157.84 73.8927 158.524C74.3367 159.208 74.5587 160.024 74.5587 160.972C74.5587 161.908 74.3367 162.718 73.8927 163.402C73.4487 164.086 72.8187 164.614 72.0027 164.986C71.1867 165.346 70.2147 165.526 69.0867 165.526H65.2527L66.5487 164.212V169H63.6327ZM66.5487 164.536L65.2527 163.15H68.9247C69.8247 163.15 70.4967 162.958 70.9407 162.574C71.3847 162.19 71.6067 161.656 71.6067 160.972C71.6067 160.276 71.3847 159.736 70.9407 159.352C70.4967 158.968 69.8247 158.776 68.9247 158.776H65.2527L66.5487 157.39V164.536ZM38.646 191V179.48L39.906 180.74H36.126V178.4H41.562V191H38.646ZM49.1508 191.216C48.1188 191.216 47.1948 190.964 46.3788 190.46C45.5628 189.944 44.9208 189.2 44.4528 188.228C43.9848 187.256 43.7508 186.08 43.7508 184.7C43.7508 183.32 43.9848 182.144 44.4528 181.172C44.9208 180.2 45.5628 179.462 46.3788 178.958C47.1948 178.442 48.1188 178.184 49.1508 178.184C50.1948 178.184 51.1188 178.442 51.9228 178.958C52.7388 179.462 53.3808 180.2 53.8488 181.172C54.3168 182.144 54.5508 183.32 54.5508 184.7C54.5508 186.08 54.3168 187.256 53.8488 188.228C53.3808 189.2 52.7388 189.944 51.9228 190.46C51.1188 190.964 50.1948 191.216 49.1508 191.216ZM49.1508 188.75C49.6428 188.75 50.0688 188.612 50.4288 188.336C50.8008 188.06 51.0888 187.622 51.2928 187.022C51.5088 186.422 51.6168 185.648 51.6168 184.7C51.6168 183.752 51.5088 182.978 51.2928 182.378C51.0888 181.778 50.8008 181.34 50.4288 181.064C50.0688 180.788 49.6428 180.65 49.1508 180.65C48.6708 180.65 48.2448 180.788 47.8728 181.064C47.5128 181.34 47.2248 181.778 47.0088 182.378C46.8048 182.978 46.7028 183.752 46.7028 184.7C46.7028 185.648 46.8048 186.422 47.0088 187.022C47.2248 187.622 47.5128 188.06 47.8728 188.336C48.2448 188.612 48.6708 188.75 49.1508 188.75ZM61.3676 191.216C60.3356 191.216 59.4116 190.964 58.5956 190.46C57.7796 189.944 57.1376 189.2 56.6696 188.228C56.2016 187.256 55.9676 186.08 55.9676 184.7C55.9676 183.32 56.2016 182.144 56.6696 181.172C57.1376 180.2 57.7796 179.462 58.5956 178.958C59.4116 178.442 60.3356 178.184 61.3676 178.184C62.4116 178.184 63.3356 178.442 64.1396 178.958C64.9556 179.462 65.5976 180.2 66.0656 181.172C66.5336 182.144 66.7676 183.32 66.7676 184.7C66.7676 186.08 66.5336 187.256 66.0656 188.228C65.5976 189.2 64.9556 189.944 64.1396 190.46C63.3356 190.964 62.4116 191.216 61.3676 191.216ZM61.3676 188.75C61.8596 188.75 62.2856 188.612 62.6456 188.336C63.0176 188.06 63.3056 187.622 63.5096 187.022C63.7256 186.422 63.8336 185.648 63.8336 184.7C63.8336 183.752 63.7256 182.978 63.5096 182.378C63.3056 181.778 63.0176 181.34 62.6456 181.064C62.2856 180.788 61.8596 180.65 61.3676 180.65C60.8876 180.65 60.4616 180.788 60.0896 181.064C59.7296 181.34 59.4416 181.778 59.2256 182.378C59.0216 182.978 58.9196 183.752 58.9196 184.7C58.9196 185.648 59.0216 186.422 59.2256 187.022C59.4416 187.622 59.7296 188.06 60.0896 188.336C60.4616 188.612 60.8876 188.75 61.3676 188.75ZM37.494 213V200.4H43.65C45.234 200.4 46.422 200.7 47.214 201.3C48.018 201.9 48.42 202.692 48.42 203.676C48.42 204.336 48.258 204.912 47.934 205.404C47.61 205.884 47.166 206.256 46.602 206.52C46.038 206.784 45.39 206.916 44.658 206.916L45 206.178C45.792 206.178 46.494 206.31 47.106 206.574C47.718 206.826 48.192 207.204 48.528 207.708C48.876 208.212 49.05 208.83 49.05 209.562C49.05 210.642 48.624 211.488 47.772 212.1C46.92 212.7 45.666 213 44.01 213H37.494ZM40.392 210.804H43.794C44.55 210.804 45.12 210.684 45.504 210.444C45.9 210.192 46.098 209.796 46.098 209.256C46.098 208.728 45.9 208.338 45.504 208.086C45.12 207.822 44.55 207.69 43.794 207.69H40.176V205.566H43.29C43.998 205.566 44.538 205.446 44.91 205.206C45.294 204.954 45.486 204.576 45.486 204.072C45.486 203.58 45.294 203.214 44.91 202.974C44.538 202.722 43.998 202.596 43.29 202.596H40.392V210.804ZM57.3777 213.216C56.3817 213.216 55.4577 213.054 54.6057 212.73C53.7657 212.406 53.0337 211.95 52.4097 211.362C51.7977 210.774 51.3177 210.084 50.9697 209.292C50.6337 208.5 50.4657 207.636 50.4657 206.7C50.4657 205.764 50.6337 204.9 50.9697 204.108C51.3177 203.316 51.8037 202.626 52.4277 202.038C53.0517 201.45 53.7837 200.994 54.6237 200.67C55.4637 200.346 56.3757 200.184 57.3597 200.184C58.3557 200.184 59.2677 200.346 60.0957 200.67C60.9357 200.994 61.6617 201.45 62.2737 202.038C62.8977 202.626 63.3837 203.316 63.7317 204.108C64.0797 204.888 64.2537 205.752 64.2537 206.7C64.2537 207.636 64.0797 208.506 63.7317 209.31C63.3837 210.102 62.8977 210.792 62.2737 211.38C61.6617 211.956 60.9357 212.406 60.0957 212.73C59.2677 213.054 58.3617 213.216 57.3777 213.216ZM57.3597 210.732C57.9237 210.732 58.4397 210.636 58.9077 210.444C59.3877 210.252 59.8077 209.976 60.1677 209.616C60.5277 209.256 60.8037 208.83 60.9957 208.338C61.1997 207.846 61.3017 207.3 61.3017 206.7C61.3017 206.1 61.1997 205.554 60.9957 205.062C60.8037 204.57 60.5277 204.144 60.1677 203.784C59.8197 203.424 59.4057 203.148 58.9257 202.956C58.4457 202.764 57.9237 202.668 57.3597 202.668C56.7957 202.668 56.2737 202.764 55.7937 202.956C55.3257 203.148 54.9117 203.424 54.5517 203.784C54.1917 204.144 53.9097 204.57 53.7057 205.062C53.5137 205.554 53.4177 206.1 53.4177 206.7C53.4177 207.288 53.5137 207.834 53.7057 208.338C53.9097 208.83 54.1857 209.256 54.5337 209.616C54.8937 209.976 55.3137 210.252 55.7937 210.444C56.2737 210.636 56.7957 210.732 57.3597 210.732ZM72.5652 213.216C71.5692 213.216 70.6452 213.054 69.7932 212.73C68.9532 212.406 68.2212 211.95 67.5972 211.362C66.9852 210.774 66.5052 210.084 66.1572 209.292C65.8212 208.5 65.6532 207.636 65.6532 206.7C65.6532 205.764 65.8212 204.9 66.1572 204.108C66.5052 203.316 66.9912 202.626 67.6152 202.038C68.2392 201.45 68.9712 200.994 69.8112 200.67C70.6512 200.346 71.5632 200.184 72.5472 200.184C73.5432 200.184 74.4552 200.346 75.2832 200.67C76.1232 200.994 76.8492 201.45 77.4612 202.038C78.0852 202.626 78.5712 203.316 78.9192 204.108C79.2672 204.888 79.4412 205.752 79.4412 206.7C79.4412 207.636 79.2672 208.506 78.9192 209.31C78.5712 210.102 78.0852 210.792 77.4612 211.38C76.8492 211.956 76.1232 212.406 75.2832 212.73C74.4552 213.054 73.5492 213.216 72.5652 213.216ZM72.5472 210.732C73.1112 210.732 73.6272 210.636 74.0952 210.444C74.5752 210.252 74.9952 209.976 75.3552 209.616C75.7152 209.256 75.9912 208.83 76.1832 208.338C76.3872 207.846 76.4892 207.3 76.4892 206.7C76.4892 206.1 76.3872 205.554 76.1832 205.062C75.9912 204.57 75.7152 204.144 75.3552 203.784C75.0072 203.424 74.5932 203.148 74.1132 202.956C73.6332 202.764 73.1112 202.668 72.5472 202.668C71.9832 202.668 71.4612 202.764 70.9812 202.956C70.5132 203.148 70.0992 203.424 69.7392 203.784C69.3792 204.144 69.0972 204.57 68.8932 205.062C68.7012 205.554 68.6052 206.1 68.6052 206.7C68.6052 207.288 68.7012 207.834 68.8932 208.338C69.0972 208.83 69.3732 209.256 69.7212 209.616C70.0812 209.976 70.5012 210.252 70.9812 210.444C71.4612 210.636 71.9832 210.732 72.5472 210.732ZM84.2427 210.12L84.0807 206.754L90.1107 200.4H93.3507L87.9147 206.25L86.2947 207.978L84.2427 210.12ZM81.6327 213V200.4H84.5307V213H81.6327ZM90.2547 213L85.7727 207.51L87.6807 205.44L93.6567 213H90.2547ZM98.8332 213.216C97.8252 213.216 96.8592 213.084 95.9352 212.82C95.0112 212.544 94.2672 212.19 93.7032 211.758L94.6932 209.562C95.2332 209.946 95.8692 210.264 96.6012 210.516C97.3452 210.756 98.0952 210.876 98.8512 210.876C99.4272 210.876 99.8892 210.822 100.237 210.714C100.597 210.594 100.861 210.432 101.029 210.228C101.197 210.024 101.281 209.79 101.281 209.526C101.281 209.19 101.149 208.926 100.885 208.734C100.621 208.53 100.273 208.368 99.8412 208.248C99.4092 208.116 98.9292 207.996 98.4012 207.888C97.8852 207.768 97.3632 207.624 96.8352 207.456C96.3192 207.288 95.8452 207.072 95.4132 206.808C94.9812 206.544 94.6272 206.196 94.3512 205.764C94.0872 205.332 93.9552 204.78 93.9552 204.108C93.9552 203.388 94.1472 202.734 94.5312 202.146C94.9272 201.546 95.5152 201.072 96.2952 200.724C97.0872 200.364 98.0772 200.184 99.2652 200.184C100.057 200.184 100.837 200.28 101.605 200.472C102.373 200.652 103.051 200.928 103.639 201.3L102.739 203.514C102.151 203.178 101.563 202.932 100.975 202.776C100.387 202.608 99.8112 202.524 99.2472 202.524C98.6832 202.524 98.2212 202.59 97.8612 202.722C97.5012 202.854 97.2432 203.028 97.0872 203.244C96.9312 203.448 96.8532 203.688 96.8532 203.964C96.8532 204.288 96.9852 204.552 97.2492 204.756C97.5132 204.948 97.8612 205.104 98.2932 205.224C98.7252 205.344 99.1992 205.464 99.7152 205.584C100.243 205.704 100.765 205.842 101.281 205.998C101.809 206.154 102.289 206.364 102.721 206.628C103.153 206.892 103.501 207.24 103.765 207.672C104.041 208.104 104.179 208.65 104.179 209.31C104.179 210.018 103.981 210.666 103.585 211.254C103.189 211.842 102.595 212.316 101.803 212.676C101.023 213.036 100.033 213.216 98.8332 213.216ZM36.594 235V233.11L41.454 228.52C41.838 228.172 42.12 227.86 42.3 227.584C42.48 227.308 42.6 227.056 42.66 226.828C42.732 226.6 42.768 226.39 42.768 226.198C42.768 225.694 42.594 225.31 42.246 225.046C41.91 224.77 41.412 224.632 40.752 224.632C40.224 224.632 39.732 224.734 39.276 224.938C38.832 225.142 38.454 225.46 38.142 225.892L36.018 224.524C36.498 223.804 37.17 223.234 38.034 222.814C38.898 222.394 39.894 222.184 41.022 222.184C41.958 222.184 42.774 222.34 43.47 222.652C44.178 222.952 44.724 223.378 45.108 223.93C45.504 224.482 45.702 225.142 45.702 225.91C45.702 226.318 45.648 226.726 45.54 227.134C45.444 227.53 45.24 227.95 44.928 228.394C44.628 228.838 44.184 229.336 43.596 229.888L39.564 233.686L39.006 232.624H46.116V235H36.594ZM52.7192 235.216C51.6872 235.216 50.7632 234.964 49.9472 234.46C49.1312 233.944 48.4892 233.2 48.0212 232.228C47.5532 231.256 47.3192 230.08 47.3192 228.7C47.3192 227.32 47.5532 226.144 48.0212 225.172C48.4892 224.2 49.1312 223.462 49.9472 222.958C50.7632 222.442 51.6872 222.184 52.7192 222.184C53.7632 222.184 54.6872 222.442 55.4912 222.958C56.3072 223.462 56.9492 224.2 57.4172 225.172C57.8852 226.144 58.1192 227.32 58.1192 228.7C58.1192 230.08 57.8852 231.256 57.4172 232.228C56.9492 233.2 56.3072 233.944 55.4912 234.46C54.6872 234.964 53.7632 235.216 52.7192 235.216ZM52.7192 232.75C53.2112 232.75 53.6372 232.612 53.9972 232.336C54.3692 232.06 54.6572 231.622 54.8612 231.022C55.0772 230.422 55.1852 229.648 55.1852 228.7C55.1852 227.752 55.0772 226.978 54.8612 226.378C54.6572 225.778 54.3692 225.34 53.9972 225.064C53.6372 224.788 53.2112 224.65 52.7192 224.65C52.2392 224.65 51.8132 224.788 51.4412 225.064C51.0812 225.34 50.7932 225.778 50.5772 226.378C50.3732 226.978 50.2712 227.752 50.2712 228.7C50.2712 229.648 50.3732 230.422 50.5772 231.022C50.7932 231.622 51.0812 232.06 51.4412 232.336C51.8132 232.612 52.2392 232.75 52.7192 232.75ZM59.3577 235V233.11L64.2177 228.52C64.6017 228.172 64.8837 227.86 65.0637 227.584C65.2437 227.308 65.3637 227.056 65.4237 226.828C65.4957 226.6 65.5317 226.39 65.5317 226.198C65.5317 225.694 65.3577 225.31 65.0097 225.046C64.6737 224.77 64.1757 224.632 63.5157 224.632C62.9877 224.632 62.4957 224.734 62.0397 224.938C61.5957 225.142 61.2177 225.46 60.9057 225.892L58.7817 224.524C59.2617 223.804 59.9337 223.234 60.7977 222.814C61.6617 222.394 62.6577 222.184 63.7857 222.184C64.7217 222.184 65.5377 222.34 66.2337 222.652C66.9417 222.952 67.4877 223.378 67.8717 223.93C68.2677 224.482 68.4657 225.142 68.4657 225.91C68.4657 226.318 68.4117 226.726 68.3037 227.134C68.2077 227.53 68.0037 227.95 67.6917 228.394C67.3917 228.838 66.9477 229.336 66.3597 229.888L62.3277 233.686L61.7697 232.624H68.8797V235H59.3577ZM69.9749 235V233.11L74.8349 228.52C75.2189 228.172 75.5009 227.86 75.6809 227.584C75.8609 227.308 75.9809 227.056 76.0409 226.828C76.1129 226.6 76.1489 226.39 76.1489 226.198C76.1489 225.694 75.9749 225.31 75.6269 225.046C75.2909 224.77 74.7929 224.632 74.1329 224.632C73.6049 224.632 73.1129 224.734 72.6569 224.938C72.2129 225.142 71.8349 225.46 71.5229 225.892L69.3989 224.524C69.8789 223.804 70.5509 223.234 71.4149 222.814C72.2789 222.394 73.2749 222.184 74.4029 222.184C75.3389 222.184 76.1549 222.34 76.8509 222.652C77.5589 222.952 78.1049 223.378 78.4889 223.93C78.8849 224.482 79.0829 225.142 79.0829 225.91C79.0829 226.318 79.0289 226.726 78.9209 227.134C78.8249 227.53 78.6209 227.95 78.3089 228.394C78.0089 228.838 77.5649 229.336 76.9769 229.888L72.9449 233.686L72.3869 232.624H79.4969V235H69.9749Z"
    fill="#1C2A39" />
  <defs>
    <filter id="filter0_d_1_405" x="0" y="0" width="209" height="327" filterUnits="userSpaceOnUse"
      color-interpolation-filters="sRGB">
      <feFlood flood-opacity="0" result="BackgroundImageFix" />
      <feColorMatrix in="SourceAlpha" type="matrix"
        values="0 0 0 0 0 0 0 0 0 0 0 0 0 0 0 0 0 0 127 0" result="hardAlpha" />
      <feOffset dy="24" />
      <feGaussianBlur stdDeviation="18" />
      <feColorMatrix type="matrix"
        values="0 0 0 0 0.207843 0 0 0 0 0.192157 0 0 0 0 0.329412 0 0 0 0.28 0" />
      <feBlend mode="normal" in2="BackgroundImageFix" result="effect1_dropShadow_1_405" />
      <feBlend mode="normal" in="SourceGraphic" in2="effect1_dropShadow_1_405" result="shape" />
    </filter>
  </defs>
</svg>