<svg width="181" height="257" viewBox="0 0 181 257" fill="none" xmlns="http://www.w3.org/2000/svg">
  <g filter="url(#filter0_d_1_412)">
    <rect x="36" y="12" width="109" height="185" fill="#EEECEC" />
  </g>
  <rect x="16" y="2" width="149" height="204" fill="#9E98DC" />
  <path d="M36 180H90" stroke="#1C2A39" stroke-width="2" />
  <path d="M84 174L91 180L84 186" stroke="#1C2A39" stroke-width="2" />
  <path
    d="M43.524 121.216C42.24 121.216 41.076 120.94 40.032 120.388C39 119.824 38.184 119.05 37.584 118.066C36.996 117.07 36.702 115.948 36.702 114.7C36.702 113.452 36.996 112.336 37.584 111.352C38.184 110.356 39 109.582 40.032 109.03C41.076 108.466 42.246 108.184 43.542 108.184C44.634 108.184 45.618 108.376 46.494 108.76C47.382 109.144 48.126 109.696 48.726 110.416L46.854 112.144C46.002 111.16 44.946 110.668 43.686 110.668C42.906 110.668 42.21 110.842 41.598 111.19C40.986 111.526 40.506 112 40.158 112.612C39.822 113.224 39.654 113.92 39.654 114.7C39.654 115.48 39.822 116.176 40.158 116.788C40.506 117.4 40.986 117.88 41.598 118.228C42.21 118.564 42.906 118.732 43.686 118.732C44.946 118.732 46.002 118.234 46.854 117.238L48.726 118.966C48.126 119.698 47.382 120.256 46.494 120.64C45.606 121.024 44.616 121.216 43.524 121.216ZM62.2512 108.4V121H59.3352V115.834H53.6112V121H50.6952V108.4H53.6112V113.368H59.3352V108.4H62.2512ZM73.5303 118.3H67.6803L66.5643 121H63.5763L69.1923 108.4H72.0723L77.7063 121H74.6463L73.5303 118.3ZM72.6123 116.086L70.6143 111.262L68.6163 116.086H72.6123ZM90.5695 108.4V121H88.1755L81.8935 113.35V121H79.0135V108.4H81.4255L87.6895 116.05V108.4H90.5695ZM102.065 114.502H104.729V119.614C104.045 120.13 103.253 120.526 102.353 120.802C101.453 121.078 100.547 121.216 99.6346 121.216C98.3266 121.216 97.1506 120.94 96.1066 120.388C95.0626 119.824 94.2406 119.05 93.6406 118.066C93.0526 117.07 92.7586 115.948 92.7586 114.7C92.7586 113.452 93.0526 112.336 93.6406 111.352C94.2406 110.356 95.0686 109.582 96.1246 109.03C97.1806 108.466 98.3686 108.184 99.6886 108.184C100.793 108.184 101.795 108.37 102.695 108.742C103.595 109.114 104.351 109.654 104.963 110.362L103.091 112.09C102.191 111.142 101.105 110.668 99.8326 110.668C99.0286 110.668 98.3146 110.836 97.6906 111.172C97.0666 111.508 96.5806 111.982 96.2326 112.594C95.8846 113.206 95.7106 113.908 95.7106 114.7C95.7106 115.48 95.8846 116.176 96.2326 116.788C96.5806 117.4 97.0606 117.88 97.6726 118.228C98.2966 118.564 99.0046 118.732 99.7966 118.732C100.637 118.732 101.393 118.552 102.065 118.192V114.502ZM117.193 118.66V121H107.437V108.4H116.959V110.74H110.335V113.476H116.185V115.744H110.335V118.66H117.193ZM43.596 143.216C42.288 143.216 41.106 142.934 40.05 142.37C39.006 141.806 38.184 141.032 37.584 140.048C36.996 139.052 36.702 137.936 36.702 136.7C36.702 135.464 36.996 134.354 37.584 133.37C38.184 132.374 39.006 131.594 40.05 131.03C41.106 130.466 42.288 130.184 43.596 130.184C44.904 130.184 46.08 130.466 47.124 131.03C48.168 131.594 48.99 132.374 49.59 133.37C50.19 134.354 50.49 135.464 50.49 136.7C50.49 137.936 50.19 139.052 49.59 140.048C48.99 141.032 48.168 141.806 47.124 142.37C46.08 142.934 44.904 143.216 43.596 143.216ZM43.596 140.732C44.34 140.732 45.012 140.564 45.612 140.228C46.212 139.88 46.68 139.4 47.016 138.788C47.364 138.176 47.538 137.48 47.538 136.7C47.538 135.92 47.364 135.224 47.016 134.612C46.68 134 46.212 133.526 45.612 133.19C45.012 132.842 44.34 132.668 43.596 132.668C42.852 132.668 42.18 132.842 41.58 133.19C40.98 133.526 40.506 134 40.158 134.612C39.822 135.224 39.654 135.92 39.654 136.7C39.654 137.48 39.822 138.176 40.158 138.788C40.506 139.4 40.98 139.88 41.58 140.228C42.18 140.564 42.852 140.732 43.596 140.732ZM52.6815 130.4H55.5975V140.624H61.9155V143H52.6815V130.4ZM63.5448 130.4H69.2688C70.6368 130.4 71.8428 130.664 72.8868 131.192C73.9428 131.708 74.7588 132.44 75.3348 133.388C75.9228 134.336 76.2168 135.44 76.2168 136.7C76.2168 137.96 75.9228 139.064 75.3348 140.012C74.7588 140.96 73.9428 141.698 72.8868 142.226C71.8428 142.742 70.6368 143 69.2688 143H63.5448V130.4ZM69.1248 140.606C70.3848 140.606 71.3868 140.258 72.1308 139.562C72.8868 138.854 73.2648 137.9 73.2648 136.7C73.2648 135.5 72.8868 134.552 72.1308 133.856C71.3868 133.148 70.3848 132.794 69.1248 132.794H66.4608V140.606H69.1248ZM92.7655 136.448C93.4855 136.676 94.0495 137.06 94.4575 137.6C94.8655 138.128 95.0695 138.782 95.0695 139.562C95.0695 140.666 94.6375 141.518 93.7735 142.118C92.9215 142.706 91.6735 143 90.0295 143H83.5135V130.4H89.6695C91.2055 130.4 92.3815 130.694 93.1975 131.282C94.0255 131.87 94.4395 132.668 94.4395 133.676C94.4395 134.288 94.2895 134.834 93.9895 135.314C93.7015 135.794 93.2935 136.172 92.7655 136.448ZM86.4115 132.596V135.566H89.3095C90.0295 135.566 90.5755 135.44 90.9475 135.188C91.3195 134.936 91.5055 134.564 91.5055 134.072C91.5055 133.58 91.3195 133.214 90.9475 132.974C90.5755 132.722 90.0295 132.596 89.3095 132.596H86.4115ZM89.8135 140.804C90.5815 140.804 91.1575 140.678 91.5415 140.426C91.9375 140.174 92.1355 139.784 92.1355 139.256C92.1355 138.212 91.3615 137.69 89.8135 137.69H86.4115V140.804H89.8135ZM103.379 143.216C102.071 143.216 100.889 142.934 99.8332 142.37C98.7892 141.806 97.9672 141.032 97.3672 140.048C96.7792 139.052 96.4852 137.936 96.4852 136.7C96.4852 135.464 96.7792 134.354 97.3672 133.37C97.9672 132.374 98.7892 131.594 99.8332 131.03C100.889 130.466 102.071 130.184 103.379 130.184C104.687 130.184 105.863 130.466 106.907 131.03C107.951 131.594 108.773 132.374 109.373 133.37C109.973 134.354 110.273 135.464 110.273 136.7C110.273 137.936 109.973 139.052 109.373 140.048C108.773 141.032 107.951 141.806 106.907 142.37C105.863 142.934 104.687 143.216 103.379 143.216ZM103.379 140.732C104.123 140.732 104.795 140.564 105.395 140.228C105.995 139.88 106.463 139.4 106.799 138.788C107.147 138.176 107.321 137.48 107.321 136.7C107.321 135.92 107.147 135.224 106.799 134.612C106.463 134 105.995 133.526 105.395 133.19C104.795 132.842 104.123 132.668 103.379 132.668C102.635 132.668 101.963 132.842 101.363 133.19C100.763 133.526 100.289 134 99.9412 134.612C99.6052 135.224 99.4372 135.92 99.4372 136.7C99.4372 137.48 99.6052 138.176 99.9412 138.788C100.289 139.4 100.763 139.88 101.363 140.228C101.963 140.564 102.635 140.732 103.379 140.732ZM118.567 143.216C117.259 143.216 116.077 142.934 115.021 142.37C113.977 141.806 113.155 141.032 112.555 140.048C111.967 139.052 111.673 137.936 111.673 136.7C111.673 135.464 111.967 134.354 112.555 133.37C113.155 132.374 113.977 131.594 115.021 131.03C116.077 130.466 117.259 130.184 118.567 130.184C119.875 130.184 121.051 130.466 122.095 131.03C123.139 131.594 123.961 132.374 124.561 133.37C125.161 134.354 125.461 135.464 125.461 136.7C125.461 137.936 125.161 139.052 124.561 140.048C123.961 141.032 123.139 141.806 122.095 142.37C121.051 142.934 119.875 143.216 118.567 143.216ZM118.567 140.732C119.311 140.732 119.983 140.564 120.583 140.228C121.183 139.88 121.651 139.4 121.987 138.788C122.335 138.176 122.509 137.48 122.509 136.7C122.509 135.92 122.335 135.224 121.987 134.612C121.651 134 121.183 133.526 120.583 133.19C119.983 132.842 119.311 132.668 118.567 132.668C117.823 132.668 117.151 132.842 116.551 133.19C115.951 133.526 115.477 134 115.129 134.612C114.793 135.224 114.625 135.92 114.625 136.7C114.625 137.48 114.793 138.176 115.129 138.788C115.477 139.4 115.951 139.88 116.551 140.228C117.151 140.564 117.823 140.732 118.567 140.732ZM132.242 138.05L130.55 139.814V143H127.652V130.4H130.55V136.286L136.13 130.4H139.37L134.15 136.016L139.676 143H136.274L132.242 138.05ZM43.596 165.216C42.288 165.216 41.106 164.934 40.05 164.37C39.006 163.806 38.184 163.032 37.584 162.048C36.996 161.052 36.702 159.936 36.702 158.7C36.702 157.464 36.996 156.354 37.584 155.37C38.184 154.374 39.006 153.594 40.05 153.03C41.106 152.466 42.288 152.184 43.596 152.184C44.904 152.184 46.08 152.466 47.124 153.03C48.168 153.594 48.99 154.374 49.59 155.37C50.19 156.354 50.49 157.464 50.49 158.7C50.49 159.936 50.19 161.052 49.59 162.048C48.99 163.032 48.168 163.806 47.124 164.37C46.08 164.934 44.904 165.216 43.596 165.216ZM43.596 162.732C44.34 162.732 45.012 162.564 45.612 162.228C46.212 161.88 46.68 161.4 47.016 160.788C47.364 160.176 47.538 159.48 47.538 158.7C47.538 157.92 47.364 157.224 47.016 156.612C46.68 156 46.212 155.526 45.612 155.19C45.012 154.842 44.34 154.668 43.596 154.668C42.852 154.668 42.18 154.842 41.58 155.19C40.98 155.526 40.506 156 40.158 156.612C39.822 157.224 39.654 157.92 39.654 158.7C39.654 159.48 39.822 160.176 40.158 160.788C40.506 161.4 40.98 161.88 41.58 162.228C42.18 162.564 42.852 162.732 43.596 162.732ZM64.2375 152.4V165H61.8435L55.5615 157.35V165H52.6815V152.4H55.0935L61.3575 160.05V152.4H64.2375ZM83.8723 152.4V165H81.4783L75.1963 157.35V165H72.3163V152.4H74.7283L80.9923 160.05V152.4H83.8723ZM96.6094 162.66V165H86.8534V152.4H96.3754V154.74H89.7514V157.476H95.6014V159.744H89.7514V162.66H96.6094ZM117.798 152.4L113.676 165H110.544L107.772 156.468L104.91 165H101.796L97.6558 152.4H100.68L103.524 161.256L106.494 152.4H109.194L112.074 161.328L115.008 152.4H117.798Z"
    fill="#1C2A39" />
  <defs>
    <filter id="filter0_d_1_412" x="0" y="0" width="181" height="257" filterUnits="userSpaceOnUse"
      color-interpolation-filters="sRGB">
      <feFlood flood-opacity="0" result="BackgroundImageFix" />
      <feColorMatrix in="SourceAlpha" type="matrix"
        values="0 0 0 0 0 0 0 0 0 0 0 0 0 0 0 0 0 0 127 0" result="hardAlpha" />
      <feOffset dy="24" />
      <feGaussianBlur stdDeviation="18" />
      <feColorMatrix type="matrix"
        values="0 0 0 0 0.207843 0 0 0 0 0.192157 0 0 0 0 0.329412 0 0 0 0.28 0" />
      <feBlend mode="normal" in2="BackgroundImageFix" result="effect1_dropShadow_1_412" />
      <feBlend mode="normal" in="SourceGraphic" in2="effect1_dropShadow_1_412" result="shape" />
    </filter>
  </defs>
</svg>